HIERARCHY
ROOT Hips
{
	OFFSET 0.00000 0.00000 0.00000
	CHANNELS 6 Xposition Yposition Zposition Zrotation Yrotation Xrotation 
	JOINT LHipJoint
	{
		OFFSET 0 0 0
		CHANNELS 3 Zrotation Yrotation Xrotation
		JOINT LeftHip
		{
			OFFSET 1.46561 -1.72757 0.83774
			CHANNELS 3 Zrotation Yrotation Xrotation
			JOINT LeftKnee
			{
				OFFSET 2.48915 -6.83890 0.00000
				CHANNELS 3 Zrotation Yrotation Xrotation
				JOINT LeftAnkle
				{
					OFFSET 2.60555 -7.15868 0.00000
					CHANNELS 3 Zrotation Yrotation Xrotation
					JOINT LeftToe
					{
						OFFSET 0.19248 -0.52884 2.26738
						CHANNELS 3 Zrotation Yrotation Xrotation
						End Site
						{
							OFFSET 0.00000 -0.00000 1.17015
						}
					}
				}
			}
		}
	}
	JOINT RHipJoint
	{
		OFFSET 0 0 0
		CHANNELS 3 Zrotation Yrotation Xrotation
		JOINT RightHip
		{
			OFFSET -1.46918 -1.72757 0.83774
			CHANNELS 3 Zrotation Yrotation Xrotation
			JOINT RightKnee
			{
				OFFSET -2.49034 -6.84216 0.00000
				CHANNELS 3 Zrotation Yrotation Xrotation
				JOINT RightAnkle
				{
					OFFSET -2.65971 -7.30750 0.00000
					CHANNELS 3 Zrotation Yrotation Xrotation
					JOINT RightToe
					{
						OFFSET -0.19227 -0.52827 2.30785
						CHANNELS 3 Zrotation Yrotation Xrotation
						End Site
						{
							OFFSET -0.00000 -0.00000 1.18972
						}
					}
				}
			}
		}
	}
	JOINT lowerback
	{
		OFFSET 0 0 0
		CHANNELS 3 Zrotation Yrotation Xrotation
		JOINT Chest
		{
			OFFSET 0.02432 2.19909 -0.28000
			CHANNELS 3 Zrotation Yrotation Xrotation
			JOINT Chest2
			{
				OFFSET 0.03714 2.21816 -0.15261
				CHANNELS 3 Zrotation Yrotation Xrotation
				JOINT lowerneck
				{
					OFFSET 0 0 0
					CHANNELS 3 Zrotation Yrotation Xrotation
					JOINT Neck
					{
						OFFSET -0.01896 1.56165 0.21681
						CHANNELS 3 Zrotation Yrotation Xrotation
						JOINT Head
						{
							OFFSET 0.02744 1.56009 0.06764
							CHANNELS 3 Zrotation Yrotation Xrotation
							End Site
							{
								OFFSET 0.01212 1.60574 0.00298
							}
						}
					}
				}
				JOINT LeftCollar
				{
					OFFSET 0 0 0
					CHANNELS 3 Zrotation Yrotation Xrotation
					JOINT LeftShoulder
					{
						OFFSET 3.05595 1.48048 -0.60794
CHANNELS 3 Zrotation Xrotation Yrotation
						JOINT LeftElbow
						{
OFFSET 0 -5.206070 -0.000000
CHANNELS 3 Zrotation Xrotation Yrotation
							JOINT LeftWrist
							{
OFFSET 0 -3.399610 0.000000
CHANNELS 3 Zrotation Xrotation Yrotation
								JOINT lhand
								{
									OFFSET 0 0 0
CHANNELS 3 Zrotation Xrotation Yrotation
									JOINT LFingers
									{
OFFSET 0 -0.519690 0.000000
CHANNELS 3 Zrotation Xrotation Yrotation
										End Site
										{
OFFSET 0 -0.418990 0.000000
										}
									}
								}
								JOINT LThumb
								{
OFFSET 0 0.000000 0.000000
CHANNELS 3 Zrotation Xrotation Yrotation
									End Site
									{
OFFSET 0 -0.425390 0.425390
									}
								}
							}
						}
					}
				}
				JOINT RightCollar
				{
					OFFSET 0 0 0
					CHANNELS 3 Zrotation Yrotation Xrotation
					JOINT RightShoulder
					{
						OFFSET -2.99052 1.57608 -0.69102
CHANNELS 3 Zrotation Xrotation Yrotation
						JOINT RightElbow
						{
OFFSET 0 -5.322140 0.000000
CHANNELS 3 Zrotation Xrotation Yrotation
							JOINT RightWrist
							{
OFFSET 0 -3.512080 0.000000
CHANNELS 3 Zrotation Xrotation Yrotation
								JOINT rhand
								{
									OFFSET 0 0 0
CHANNELS 3 Zrotation Xrotation Yrotation
									JOINT RFingers
									{
OFFSET 0 -0.586680 0.000000
CHANNELS 3 Zrotation Xrotation Yrotation
										End Site
										{
OFFSET 0 -0.473000 0.000000
										}
									}
								}
								JOINT RThumb
								{
OFFSET 0 0.000000 0.000000
CHANNELS 3 Zrotation Xrotation Yrotation
									End Site
									{
OFFSET 0 -0.480220 0.480220
									}
								}
							}
						}
					}
				}
			}
		}
	}
}
MOTION
Frames: 11
Frame Time: 0.008333333333333333
0.368281 16.953559 -3.224387 -1.814035 1.164324 -0.232223 0.000000 0.000000 0.000000 -14.995013 -1.347621 -23.796615 4.586788 12.901279 39.002480 0.680411 1.174756 -16.050259 0.024236 -1.003856 -2.759449 0.000000 0.000000 0.000000 18.697301 2.831184 -22.944573 -4.997320 -13.379587 40.808811 -0.906252 4.926038 -17.010601 -0.198710 -2.869535 7.915816 -0.669617 -0.099180 3.321347 1.447998 -0.166828 4.253288 1.865220 -0.125613 2.514499 -1.886168 -0.132283 -11.187970 1.381511 -0.166434 33.276570 0.846379 -0.126473 12.959880 0.000000 0.000000 0.000000 1.428381 -20.367750 -14.401954 7.313757 -12.434224 0.798061 28.495514 -6.486670 8.107090 0.000000 0.000000 0.000000 -7.125000 0.000000 0.000000 1.183305 20.773997 0.686920 0.000000 0.000000 0.000000 0.024674 -18.074789 14.102914 -13.084065 -21.410212 -2.483967 -27.529827 43.458476 23.858482 0.000000 0.000000 0.000000 7.125000 0.000000 0.000000 1.928090 56.476908 -0.542715
0.374581 17.002558 -3.212484 -1.749696 1.173108 0.198595 0.000000 0.000000 0.000000 -15.131277 -1.258400 -23.722286 4.377448 12.645201 38.056313 0.663217 1.001956 -15.778741 0.021771 -0.951846 -2.616422 0.000000 0.000000 0.000000 18.635436 2.856989 -22.874915 -4.798240 -13.152059 39.941821 -0.875647 4.868610 -16.716462 -0.216419 -2.994153 8.262507 -0.667333 -0.160096 3.194260 1.442165 -0.247223 4.161888 1.858347 -0.165008 2.494081 -1.875262 -0.102615 -11.188057 1.339240 -0.112959 33.150853 0.834308 -0.107018 12.905301 0.000000 0.000000 0.000000 1.549500 -20.056314 -13.382084 7.096213 -12.077375 0.751810 28.387920 -5.386528 7.952537 0.000000 0.000000 0.000000 -7.125000 0.000000 0.000000 1.115527 20.957702 0.643021 0.000000 0.000000 0.000000 -0.056370 -17.921474 14.445922 -13.219414 -21.607763 -2.533563 -27.542776 43.108934 23.797854 0.000000 0.000000 0.000000 7.125000 0.000000 0.000000 1.895189 56.414530 -0.530594
0.380768 17.047467 -3.200878 -1.673805 1.185858 0.604219 0.000000 0.000000 0.000000 -15.279579 -1.148713 -23.656617 4.182673 12.398866 37.159142 0.647220 0.813226 -15.513661 0.019436 -0.899914 -2.473476 0.000000 0.000000 0.000000 18.556968 2.875283 -22.812732 -4.616607 -12.938061 39.137806 -0.847948 4.828577 -16.445475 -0.235855 -3.124959 8.626903 -0.681170 -0.218075 3.083183 1.435257 -0.324019 4.080542 1.859244 -0.203095 2.475127 -1.863025 -0.077559 -11.194368 1.298426 -0.066929 33.018676 0.821481 -0.090424 12.849657 0.000000 0.000000 0.000000 1.665786 -19.764021 -12.423093 6.895673 -11.747347 0.710372 28.225197 -4.326732 7.755464 0.000000 0.000000 0.000000 -7.125000 0.000000 0.000000 1.010098 21.193550 0.576894 0.000000 0.000000 0.000000 -0.149111 -17.770886 14.750297 -13.351348 -21.799727 -2.582325 -27.573496 42.783744 23.747244 0.000000 0.000000 0.000000 7.125000 0.000000 0.000000 1.846039 56.366730 -0.514649
0.386976 17.088524 -3.189559 -1.582550 1.196950 0.982193 0.000000 0.000000 0.000000 -15.445062 -1.016845 -23.597360 4.002014 12.162884 36.311044 0.631739 0.614631 -15.251280 0.017180 -0.846360 -2.326136 0.000000 0.000000 0.000000 18.457989 2.889591 -22.756880 -4.451811 -12.738317 38.396920 -0.822453 4.803229 -16.192152 -0.255537 -3.252131 8.981460 -0.714839 -0.271755 2.989828 1.427169 -0.395371 4.010445 1.869986 -0.238973 2.457879 -1.858745 -0.056518 -11.199032 1.264077 -0.026827 32.876412 0.811669 -0.076469 12.789785 0.000000 0.000000 0.000000 1.776285 -19.491381 -11.544757 6.712980 -11.445850 0.673497 28.017351 -3.344465 7.542056 0.000000 0.000000 0.000000 -7.125000 0.000000 0.000000 0.872249 21.450803 0.493031 0.000000 0.000000 0.000000 -0.253676 -17.623497 15.011735 -13.479482 -21.985602 -2.630124 -27.617550 42.482368 23.706002 0.000000 0.000000 0.000000 7.125000 0.000000 0.000000 1.785188 56.331948 -0.496228
0.393512 17.125473 -3.178404 -1.482508 1.201308 1.324848 0.000000 0.000000 0.000000 -15.621880 -0.857543 -23.540977 3.836961 11.939879 35.520114 0.616750 0.413325 -14.993418 0.015088 -0.793463 -2.180604 0.000000 0.000000 0.000000 18.346443 2.899874 -22.702588 -4.304100 -12.554179 37.722155 -0.799011 4.788065 -15.954681 -0.273576 -3.364025 9.293963 -0.759022 -0.319684 2.918979 1.417932 -0.459249 3.955543 1.885411 -0.271565 2.443587 -1.854300 -0.037695 -11.218727 1.232356 0.009252 32.739158 0.802432 -0.063746 12.735580 0.000000 0.000000 0.000000 1.883910 -19.242233 -10.783631 6.552545 -11.180492 0.642125 27.769423 -2.459941 7.295958 0.000000 0.000000 0.000000 -7.125000 0.000000 0.000000 0.706063 21.746661 0.394382 0.000000 0.000000 0.000000 -0.368098 -17.484239 15.224631 -13.600962 -22.161374 -2.675788 -27.672365 42.203416 23.672974 0.000000 0.000000 0.000000 7.125000 0.000000 0.000000 1.715385 56.308419 -0.475836
0.400285 17.158458 -3.167567 -1.379927 1.195832 1.632056 0.000000 0.000000 0.000000 -15.802821 -0.678893 -23.486259 3.686816 11.730989 34.787548 0.601998 0.223756 -14.743405 0.013314 -0.743896 -2.044349 0.000000 0.000000 0.000000 18.229029 2.910554 -22.646156 -4.171455 -12.384712 37.107498 -0.776996 4.780197 -15.728392 -0.289474 -3.459426 9.560631 -0.805583 -0.361112 2.869382 1.408615 -0.514403 3.915550 1.902025 -0.299876 2.432626 -1.855486 -0.021488 -11.240721 1.206821 0.041127 32.602222 0.796049 -0.052767 12.682328 0.000000 0.000000 0.000000 1.987411 -19.014495 -10.144783 6.413918 -10.950661 0.615510 27.492313 -1.664232 7.028687 0.000000 0.000000 0.000000 -7.125000 0.000000 0.000000 0.518149 22.066944 0.285901 0.000000 0.000000 0.000000 -0.489101 -17.359334 15.380749 -13.710310 -22.319066 -2.717170 -27.726069 41.959832 23.654061 0.000000 0.000000 0.000000 7.125000 0.000000 0.000000 1.650895 56.299718 -0.457585
0.407348 17.187994 -3.157027 -1.281282 1.179749 1.908648 0.000000 0.000000 0.000000 -15.979453 -0.489624 -23.435892 3.550904 11.536852 34.113314 0.587603 0.051959 -14.504801 0.011704 -0.697915 -1.917982 0.000000 0.000000 0.000000 18.113094 2.929578 -22.587850 -4.051796 -12.228589 36.546163 -0.756252 4.772786 -15.512843 -0.302967 -3.538510 9.781834 -0.847397 -0.395517 2.839296 1.400154 -0.560389 3.889191 1.916963 -0.323643 2.424452 -1.856631 -0.007135 -11.279288 1.182362 0.070128 32.478871 0.789882 -0.042891 12.638471 0.000000 0.000000 0.000000 2.087713 -18.801700 -9.646670 6.299641 -10.760955 0.593951 27.201751 -0.952525 6.734804 0.000000 0.000000 0.000000 -7.125000 0.000000 0.000000 0.320112 22.416419 0.174386 0.000000 0.000000 0.000000 -0.614277 -17.250466 15.482745 -13.806165 -22.456896 -2.753677 -27.772288 41.745793 23.645581 0.000000 0.000000 0.000000 7.125000 0.000000 0.000000 1.597694 56.300724 -0.442868
0.414602 17.214112 -3.146784 -1.188657 1.150536 2.157663 0.000000 0.000000 0.000000 -16.148720 -0.295338 -23.392349 3.429094 11.358558 33.499665 0.573740 -0.096550 -14.280120 0.010296 -0.654716 -1.799180 0.000000 0.000000 0.000000 18.000963 2.961801 -22.528491 -3.944561 -12.085872 36.036940 -0.737146 4.764327 -15.311925 -0.314384 -3.604284 9.965903 -0.883425 -0.422416 2.824709 1.393463 -0.596392 3.875838 1.930485 -0.342375 2.420635 -1.858822 0.005327 -11.333077 1.158317 0.096916 32.369872 0.783910 -0.034055 12.603997 0.000000 0.000000 0.000000 2.184787 -18.605922 -9.285042 6.207176 -10.607307 0.576822 26.906986 -0.308999 6.432156 0.000000 0.000000 0.000000 -7.125000 0.000000 0.000000 0.117447 22.774184 0.063410 0.000000 0.000000 0.000000 -0.742534 -17.163302 15.527400 -13.884418 -22.569213 -2.783652 -27.807313 41.570522 23.646508 0.000000 0.000000 0.000000 7.125000 0.000000 0.000000 1.559637 56.309388 -0.432616
0.422044 17.237017 -3.136960 -1.101754 1.109237 2.381581 0.000000 0.000000 0.000000 -16.310344 -0.103887 -23.356295 3.321081 11.196988 32.947836 0.560349 -0.220926 -14.069007 0.008867 -0.606515 -1.666663 0.000000 0.000000 0.000000 17.892359 3.007470 -22.470141 -3.849217 -11.956723 35.579334 -0.719905 4.752942 -15.128634 -0.323788 -3.657419 10.114784 -0.913339 -0.441947 2.824496 1.387752 -0.622632 3.873429 1.941555 -0.356192 2.419637 -1.863170 0.015981 -11.396629 1.135905 0.121372 32.274791 0.778804 -0.026301 12.577535 0.000000 0.000000 0.000000 2.278553 -18.420132 -9.067857 6.139070 -10.493984 0.564341 26.616417 0.268747 6.130229 0.000000 0.000000 0.000000 -7.125000 0.000000 0.000000 -0.084034 23.129145 -0.043733 0.000000 0.000000 0.000000 -0.871787 -17.099626 15.513311 -13.941664 -22.651240 -2.805640 -27.826788 41.435545 23.654047 0.000000 0.000000 0.000000 7.125000 0.000000 0.000000 1.540571 56.321769 -0.427770
0.429570 17.256932 -3.127684 -1.020238 1.057574 2.583697 0.000000 0.000000 0.000000 -16.463982 0.078843 -23.330300 3.226357 11.052469 32.457454 0.547246 -0.323703 -13.868266 0.007215 -0.546613 -1.502014 0.000000 0.000000 0.000000 17.787387 3.068362 -22.416166 -3.765379 -11.841356 35.173184 -0.704734 4.734506 -14.965970 -0.330861 -3.696726 10.225078 -0.938081 -0.454458 2.838267 1.382896 -0.639623 3.879815 1.950611 -0.365356 2.419456 -1.869821 0.025149 -11.469906 1.115248 0.143898 32.196177 0.774729 -0.019493 12.560091 0.000000 0.000000 0.000000 2.368362 -18.239803 -8.996898 6.095785 -10.421842 0.556439 26.340924 0.778853 5.848020 0.000000 0.000000 0.000000 -7.125000 0.000000 0.000000 -0.276839 23.459623 -0.143418 0.000000 0.000000 0.000000 -1.001487 -17.059230 15.442010 -13.976548 -22.701146 -2.819047 -27.824466 41.343428 23.670217 0.000000 0.000000 0.000000 7.125000 0.000000 0.000000 1.547919 56.338713 -0.430457
0.436932 17.273994 -3.119018 -0.944620 0.996380 2.767943 0.000000 0.000000 0.000000 -16.608469 0.250781 -23.318610 3.144170 10.924693 32.026527 0.534306 -0.409352 -13.673911 0.005369 -0.472758 -1.298902 0.000000 0.000000 0.000000 17.687378 3.148277 -22.370054 -3.692772 -11.739910 34.818082 -0.691867 4.705009 -14.827067 -0.335501 -3.722530 10.297430 -0.959781 -0.460315 2.864561 1.380225 -0.647805 3.893551 1.960263 -0.370065 2.419495 -1.878989 0.033082 -11.557613 1.095280 0.165411 32.137898 0.771430 -0.013429 12.554216 0.000000 0.000000 0.000000 2.452908 -18.068568 -9.056424 6.073184 -10.384174 0.552355 26.088085 1.235379 5.601555 0.000000 0.000000 0.000000 -7.125000 0.000000 0.000000 -0.455905 23.747436 -0.233514 0.000000 0.000000 0.000000 -1.133193 -17.042342 15.316178 -13.989037 -22.719026 -2.823879 -27.792631 41.303545 23.703251 0.000000 0.000000 0.000000 7.125000 0.000000 0.000000 1.592736 56.367348 -0.444043
